<svg class="icon" viewBox="0 0 145.192 145.192"><path d="M126.82 32.694a5.08 5.08 0 0 0-5.08 5.075v2.721a2.646 2.646 0 0 0-2.646 2.647v1.995a2.874 2.874 0 0 0 2.874 2.873h20.577a2.646 2.646 0 0 0 2.646-2.647v-3.041a1.823 1.823 0 0 0-1.823-1.825V37.77a5.079 5.079 0 0 0-5.079-5.075h-1.985v-3.829a6.913 6.913 0 0 0-6.913-6.912h-21.039a4.834 4.834 0 0 0-4.833-4.835H56.843a4.835 4.835 0 0 0-4.835 4.835H34.356V18.57h-9.563v4.562h-7.061v1.416c-2.67.27-10.17 1.424-13.882 5.972-1.773 2.17-2.44 4.791-1.983 7.793.463 3.043 1.271 6.346 2.128 9.841 2.354 9.616 5.024 20.515.549 28.077-1.897 3.209-7.669 14.358-2.343 23.316 4.123 6.935 13.701 10.44 28.5 10.44 1.186 0 2.405-.023 3.658-.068v9.028h-.296a4.558 4.558 0 0 0-4.558 4.558v4.566h100.04v-4.564a4.556 4.556 0 0 0-4.558-4.558h-.297V84.631h.297a4.554 4.554 0 0 0 4.558-4.556v-.009a4.556 4.556 0 0 0-4.556-4.556l-36.786-.009V61.973a3.97 3.97 0 0 0-3.972-3.971v-4.711h.456a2.951 2.951 0 0 0 2.952-2.949h14.227V34.459h1.658a4.833 4.833 0 0 0 4.834-4.834h20.45v3.069h-1.988zM34.06 75.511a4.557 4.557 0 0 0-4.558 4.556v.009a4.556 4.556 0 0 0 4.558 4.556h.296v24.12l-.042-1.168c-15.994.574-26.122-2.523-30.106-9.229-4.672-7.855.614-18.008 2.342-20.932 4.964-8.382 2.173-19.774-.29-29.825-.843-3.442-1.639-6.696-2.088-9.638-.354-2.35.129-4.3 1.484-5.958 3.029-3.714 9.509-4.805 12.076-5.1v1.233h7.061v4.174c-2.403 1.114-4.153 2.997-4.676 5.237H18.15c-.584 0-1.056.474-1.056 1.056v.83c0 .584.475 1.056 1.056 1.056h1.984c.561 2.18 2.304 3.999 4.658 5.092v.029S22.51 66.432 41.271 67.708v1.102c0 1.177.955 2.133 2.133 2.133h3.297a2.134 2.134 0 0 0 2.133-2.133V50.135a2.133 2.133 0 0 0-2.133-2.132h-3.297a2.133 2.133 0 0 0-2.133 2.132c-1.575-.235-5.532-1.17-6.635-4.547 2.36-1.092 4.109-2.913 4.669-5.097h1.308c.722 0 1.309-.584 1.309-1.308v-.578c0-.584-.475-1.056-1.056-1.056h-1.539c-.542-2.332-2.416-4.271-4.968-5.363v-2.559H52.01a4.836 4.836 0 0 0 4.836 4.835h2.392v15.88h13.639a2.95 2.95 0 0 0 2.951 2.949h.899v4.711a3.971 3.971 0 0 0-3.972 3.971v13.529l-38.695.009zm61.128 26.269c0 8.655-7.012 15.665-15.664 15.665-8.653 0-15.667-7.01-15.667-15.665 0-8.647 7.014-15.664 15.667-15.664 8.653 0 15.664 7.016 15.664 15.664zm2.001-56.111h-9.556a1.62 1.62 0 0 0-1.619-1.62h-11.52c-.896 0-1.621.727-1.621 1.62h-8.967v-11.21h33.283v11.21z"/><path d="M70.865 101.78c0 4.774 3.886 8.657 8.66 8.657s8.657-3.883 8.657-8.657c0-4.773-3.883-8.656-8.657-8.656s-8.66 3.882-8.66 8.656z"/></svg>